<svg width="43" height="47" viewBox="0 0 43 47" fill="none" xmlns="http://www.w3.org/2000/svg">
<path d="M0.862305 25.7535C0.862305 37.1396 10.1135 46.3908 21.4995 46.3908C32.8856 46.3908 42.1367 37.1396 42.1367 25.7535C42.1367 20.1001 39.8437 14.921 36.1274 11.2047L37.7484 9.58378L38.4995 10.3349C38.8158 10.6512 39.2111 10.8094 39.646 10.8094C40.0809 10.8094 40.4763 10.6512 40.7925 10.3349C41.4251 9.70238 41.4251 8.67448 40.7925 8.04192L37.0367 4.2861C36.4042 3.65355 35.3763 3.65355 34.7437 4.2861C34.1111 4.91866 34.1111 5.94657 34.7437 6.57913L35.4949 7.33029L33.7158 9.10936C30.7111 6.89541 27.1135 5.51168 23.16 5.19541V3.81168H26.7577C27.667 3.81168 28.3786 3.10006 28.3786 2.19075C28.3786 1.28145 27.667 0.569824 26.7577 0.569824H16.0832C15.1739 0.569824 14.4623 1.28145 14.4623 2.19075C14.4623 3.10006 15.1739 3.81168 16.0832 3.81168H19.9181V5.19541C9.2437 6.02564 0.862305 14.921 0.862305 25.7535ZM21.4995 8.3582C31.1065 8.3582 38.9344 16.1861 38.9344 25.7931C38.9344 35.4001 31.1065 43.228 21.4995 43.228C11.8925 43.228 4.06463 35.4001 4.06463 25.7931C4.06463 16.1466 11.8925 8.3582 21.4995 8.3582Z" fill="#FF0000"/>
<path d="M21.4998 27.0977H28.4184C29.3277 27.0977 30.0394 26.3861 30.0394 25.4768C30.0394 24.5675 29.3277 23.8559 28.4184 23.8559H23.1208V15.514C23.1208 14.6047 22.4091 13.8931 21.4998 13.8931C20.5905 13.8931 19.8789 14.6047 19.8789 15.514V25.5163C19.8789 26.3861 20.5905 27.0977 21.4998 27.0977Z" fill="#FF0000"/>
</svg>
